<svg width="99" height="27" viewBox="0 0 99 27" fill="none" xmlns="http://www.w3.org/2000/svg">
<path d="M9.22244 5.5C9.74928 5.84446 10.2608 6.20461 10.7655 6.58065C10.908 6.68621 11.0506 6.79172 11.1932 6.89718C11.2653 6.95049 11.3374 7.0038 11.4117 7.05872C11.7667 7.32043 12.1233 7.57996 12.4805 7.83871C12.5444 7.88518 12.6082 7.93165 12.674 7.97952C12.9787 8.19981 13.2825 8.41018 13.6095 8.59677C13.6509 8.56615 13.6923 8.53552 13.735 8.50397C14.5718 7.8853 15.4094 7.26778 16.2556 6.66186C16.5352 6.46142 16.8131 6.26011 17.0843 6.04839C17.1672 5.98452 17.25 5.92065 17.3353 5.85484C17.4386 5.77267 17.4386 5.77267 17.544 5.68884C17.7386 5.58602 17.7386 5.58602 17.9402 5.58401C18.267 5.70992 18.5133 5.90798 18.787 6.12366C18.9103 6.21855 19.0337 6.3133 19.1573 6.40793C19.2211 6.45703 19.2849 6.50612 19.3507 6.5567C19.6639 6.79462 19.9834 7.02359 20.3031 7.25269C20.8417 7.63975 21.3773 8.03049 21.9106 8.42473C22.5015 8.8614 23.0955 9.29343 23.6918 9.72261C24.2493 10.1244 24.8029 10.5316 25.3553 10.9404C25.4192 10.9875 25.483 11.0347 25.5487 11.0833C25.6042 11.1244 25.6596 11.1655 25.7168 11.2078C25.8972 11.3478 25.8972 11.3478 26.0589 11.4243C26.3186 11.5702 26.4845 11.6793 26.5675 11.974C26.5871 12.2247 26.5872 12.4693 26.5811 12.7207C26.5812 12.8156 26.5813 12.9104 26.5814 13.0082C26.581 13.3215 26.5763 13.6346 26.5716 13.9479C26.5704 14.1652 26.5696 14.3826 26.569 14.5999C26.5669 15.1132 26.5622 15.6265 26.5561 16.1399C26.5475 16.8844 26.5444 17.629 26.5406 18.3735C26.5347 19.4157 26.5232 20.4578 26.5128 21.5C24.7811 21.5 23.0495 21.5 21.2654 21.5C21.2654 20.7903 21.2654 20.0806 21.2654 19.3495C22.2874 19.3495 23.3093 19.3495 24.3622 19.3495C24.3895 18.2301 24.3895 18.2301 24.4031 17.1107C24.4056 16.6532 24.4096 16.196 24.4233 15.7386C24.5635 13.9998 24.5635 13.9998 23.9668 12.4603C23.6727 12.2065 23.3605 12.03 23.0068 11.8725C22.6746 11.7126 22.3883 11.488 22.0934 11.2688C21.9717 11.1836 21.85 11.0984 21.7282 11.0134C21.3274 10.732 20.9333 10.4419 20.5396 10.1505C19.982 9.73814 19.4235 9.3269 18.8622 8.91935C18.7976 8.87212 18.7329 8.82489 18.6663 8.77623C18.606 8.73253 18.5457 8.68884 18.4835 8.64382C18.4309 8.60553 18.3782 8.56725 18.3239 8.52781C18.163 8.42095 17.999 8.33547 17.8246 8.25269C17.5808 8.42821 17.3371 8.60388 17.0934 8.77957C17.0253 8.82858 16.9572 8.87759 16.8871 8.92809C16.8194 8.97688 16.7518 9.02567 16.6821 9.07594C16.6146 9.12465 16.5471 9.17336 16.4775 9.22354C16.2236 9.40946 15.9746 9.60132 15.7266 9.79498C15.588 9.8871 15.588 9.8871 15.416 9.8871C15.7271 10.2151 16.0506 10.479 16.4214 10.7366C16.4697 10.7706 16.5179 10.8046 16.5677 10.8397C16.6173 10.8746 16.6669 10.9096 16.7181 10.9456C16.7668 10.9807 16.8156 11.0159 16.8658 11.0521C17.0521 11.1826 17.0521 11.1826 17.2676 11.298C17.8628 11.6509 17.8628 11.6509 17.9887 11.9895C18.0165 12.2435 18.0172 12.4849 18.0083 12.7402C18.0084 12.8351 18.0085 12.93 18.0086 13.0278C18.0081 13.3403 18.0014 13.6523 17.9946 13.9647C17.993 14.1818 17.9918 14.3989 17.9909 14.6159C17.988 15.1281 17.9812 15.6401 17.9726 16.1522C17.9603 16.8953 17.9558 17.6384 17.9504 18.3815C17.942 19.4211 17.9255 20.4603 17.9106 21.5C15.0435 21.5 12.1764 21.5 9.22244 21.5C9.17414 19.1086 9.17414 19.1086 9.16364 18.0867C9.15645 17.3902 9.14814 16.6938 9.13159 15.9975C9.11825 15.4358 9.1113 14.8743 9.10818 14.3125C9.10596 14.0985 9.10162 13.8846 9.09511 13.6707C9.04733 12.0365 9.04733 12.0365 9.3403 11.6066C9.65822 11.2877 10.0214 11.1061 10.4267 10.9194C10.5549 10.8338 10.6817 10.746 10.8048 10.6532C10.9544 10.5479 11.104 10.4426 11.2542 10.338C11.529 10.1525 11.529 10.1525 11.7171 9.8871C11.6271 9.85699 11.6271 9.85699 11.5353 9.82628C11.24 9.69403 11.005 9.51278 10.7547 9.31183C10.284 8.94129 9.80358 8.59022 9.30846 8.25269C9.07163 8.36512 8.86147 8.48975 8.64952 8.64382C8.5892 8.68751 8.52888 8.7312 8.46673 8.77621C8.40208 8.82345 8.33743 8.87069 8.27083 8.91935C8.20274 8.96881 8.13466 9.01827 8.06451 9.06922C7.50567 9.47581 6.94946 9.88598 6.39369 10.2967C5.87262 10.6815 5.3485 11.0618 4.82157 11.4385C4.70059 11.5254 4.5819 11.6154 4.46509 11.7078C4.26733 11.8424 4.10201 11.9231 3.88402 12.0139C3.43733 12.2286 3.10028 12.4561 2.85685 12.8978C2.62226 13.8912 2.69483 14.9464 2.72247 15.9595C2.73299 16.4092 2.73314 16.859 2.73507 17.3089C2.73913 17.9895 2.75619 18.6686 2.77083 19.3495C3.7076 19.3495 4.64438 19.3495 5.60954 19.3495C5.60954 20.0591 5.60954 20.7688 5.60954 21.5C3.96309 21.5 2.31663 21.5 0.62029 21.5C0.554736 19.1224 0.554736 19.1224 0.540485 18.1035C0.530738 17.4099 0.519501 16.7167 0.496991 16.0234C0.479141 15.464 0.469443 14.9049 0.465222 14.3451C0.462218 14.1324 0.456349 13.9197 0.447484 13.7071C0.382778 12.0901 0.382778 12.0901 0.776035 11.5759C1.15596 11.2127 1.5824 10.9484 2.04166 10.6971C2.39054 10.4976 2.7072 10.2561 3.02889 10.0161C3.15688 9.92363 3.285 9.83131 3.4133 9.73925C3.81767 9.4472 4.21914 9.15129 4.62029 8.85484C5.21117 8.41818 5.80515 7.98614 6.40148 7.55696C6.95902 7.15513 7.51254 6.74797 8.06501 6.33921C8.44832 6.05582 8.83374 5.77595 9.22244 5.5Z" fill="#191C21"/>
<path d="M13.6001 11.3706C13.8096 11.4456 13.9596 11.5451 14.1391 11.6766C14.2059 11.7253 14.2727 11.7739 14.3415 11.824C14.4105 11.875 14.4796 11.9261 14.5507 11.9787C14.6194 12.0288 14.6881 12.0788 14.7588 12.1304C14.9503 12.2705 15.1411 12.4109 15.3302 12.554C15.404 12.6006 15.4778 12.6473 15.5538 12.6953C15.7834 12.9207 15.8105 13.034 15.8139 13.3503C15.8116 13.4389 15.8116 13.4389 15.8092 13.5294C15.8092 13.5923 15.8093 13.6553 15.8094 13.7202C15.8091 13.9279 15.8057 14.1353 15.8024 14.343C15.8016 14.4871 15.8009 14.6313 15.8005 14.7754C15.7989 15.1545 15.7947 15.5334 15.7899 15.9124C15.7847 16.3674 15.7827 16.8223 15.7802 17.2773C15.7761 17.9681 15.7678 18.6588 15.7604 19.3497C14.3126 19.3497 12.8649 19.3497 11.3733 19.3497C11.3284 17.7741 11.3284 17.7741 11.3187 17.0983C11.312 16.6385 11.3041 16.179 11.2889 15.7194C11.2767 15.3485 11.27 14.9778 11.2672 14.6067C11.2651 14.4657 11.2611 14.3247 11.255 14.1838C11.2107 13.1127 11.2107 13.1127 11.48 12.7572C11.7821 12.461 12.1305 12.2544 12.4915 12.0379C12.6695 11.908 12.8407 11.772 13.013 11.6346C13.3891 11.3434 13.3891 11.3434 13.6001 11.3706Z" fill="#FEFEFE"/>
<path d="M39.9527 20V7.4H42.0227V20H39.9527ZM47.9627 20V7.4H50.0327V20H47.9627ZM41.3747 14.42V12.53H48.4127V14.42H41.3747ZM56.1152 20.18C55.3352 20.18 54.6272 19.982 53.9912 19.586C53.3672 19.19 52.8692 18.656 52.4972 17.984C52.1372 17.3 51.9572 16.538 51.9572 15.698C51.9572 14.846 52.1372 14.084 52.4972 13.412C52.8692 12.728 53.3672 12.188 53.9912 11.792C54.6272 11.384 55.3352 11.18 56.1152 11.18C56.7752 11.18 57.3572 11.324 57.8612 11.612C58.3772 11.888 58.7852 12.272 59.0852 12.764C59.3852 13.256 59.5352 13.814 59.5352 14.438V16.922C59.5352 17.546 59.3852 18.104 59.0852 18.596C58.7972 19.088 58.3952 19.478 57.8792 19.766C57.3632 20.042 56.7752 20.18 56.1152 20.18ZM56.4392 18.308C57.1712 18.308 57.7592 18.062 58.2032 17.57C58.6592 17.078 58.8872 16.448 58.8872 15.68C58.8872 15.164 58.7852 14.708 58.5812 14.312C58.3772 13.916 58.0892 13.61 57.7172 13.394C57.3572 13.166 56.9312 13.052 56.4392 13.052C55.9592 13.052 55.5332 13.166 55.1612 13.394C54.8012 13.61 54.5132 13.916 54.2972 14.312C54.0932 14.708 53.9912 15.164 53.9912 15.68C53.9912 16.196 54.0932 16.652 54.2972 17.048C54.5132 17.444 54.8012 17.756 55.1612 17.984C55.5332 18.2 55.9592 18.308 56.4392 18.308ZM58.7612 20V17.678L59.1032 15.572L58.7612 13.484V11.36H60.7412V20H58.7612ZM65.8546 20L61.9126 11.36H64.1086L67.1146 18.398H65.8186L68.8426 11.36H70.9486L67.0066 20H65.8546ZM72.1324 20V11.36H74.1124V20H72.1324ZM73.1224 9.776C72.7864 9.776 72.5044 9.662 72.2764 9.434C72.0604 9.206 71.9524 8.924 71.9524 8.588C71.9524 8.252 72.0604 7.97 72.2764 7.742C72.5044 7.514 72.7864 7.4 73.1224 7.4C73.4704 7.4 73.7524 7.514 73.9684 7.742C74.1844 7.97 74.2924 8.252 74.2924 8.588C74.2924 8.924 74.1844 9.206 73.9684 9.434C73.7524 9.662 73.4704 9.776 73.1224 9.776ZM82.2551 20V15.014C82.2551 14.438 82.0691 13.964 81.6971 13.592C81.3371 13.22 80.8691 13.034 80.2931 13.034C79.9091 13.034 79.5671 13.118 79.2671 13.286C78.9671 13.454 78.7331 13.688 78.5651 13.988C78.3971 14.288 78.3131 14.63 78.3131 15.014L77.5391 14.582C77.5391 13.922 77.6831 13.34 77.9711 12.836C78.2591 12.32 78.6551 11.918 79.1591 11.63C79.6751 11.33 80.2511 11.18 80.8871 11.18C81.5351 11.18 82.1111 11.348 82.6151 11.684C83.1191 12.008 83.5151 12.434 83.8031 12.962C84.0911 13.478 84.2351 14.018 84.2351 14.582V20H82.2551ZM76.3331 20V11.36H78.3131V20H76.3331ZM86.2652 20V11.36H88.2452V20H86.2652ZM87.2552 9.776C86.9192 9.776 86.6372 9.662 86.4092 9.434C86.1932 9.206 86.0852 8.924 86.0852 8.588C86.0852 8.252 86.1932 7.97 86.4092 7.742C86.6372 7.514 86.9192 7.4 87.2552 7.4C87.6032 7.4 87.8852 7.514 88.1012 7.742C88.3172 7.97 88.4252 8.252 88.4252 8.588C88.4252 8.924 88.3172 9.206 88.1012 9.434C87.8852 9.662 87.6032 9.776 87.2552 9.776ZM94.4439 20.18C93.5919 20.18 92.8179 19.982 92.1219 19.586C91.4379 19.19 90.8979 18.65 90.5019 17.966C90.1059 17.282 89.9079 16.52 89.9079 15.68C89.9079 14.828 90.1059 14.066 90.5019 13.394C90.8979 12.71 91.4379 12.17 92.1219 11.774C92.8179 11.378 93.5919 11.18 94.4439 11.18C95.1159 11.18 95.7399 11.312 96.3159 11.576C96.9039 11.828 97.4019 12.194 97.8099 12.674L96.5139 13.988C96.2619 13.688 95.9559 13.466 95.5959 13.322C95.2479 13.166 94.8639 13.088 94.4439 13.088C93.9519 13.088 93.5139 13.202 93.1299 13.43C92.7579 13.646 92.4639 13.946 92.2479 14.33C92.0439 14.714 91.9419 15.164 91.9419 15.68C91.9419 16.184 92.0439 16.634 92.2479 17.03C92.4639 17.414 92.7579 17.72 93.1299 17.948C93.5139 18.164 93.9519 18.272 94.4439 18.272C94.8639 18.272 95.2479 18.2 95.5959 18.056C95.9559 17.9 96.2619 17.672 96.5139 17.372L97.8099 18.686C97.4019 19.166 96.9039 19.538 96.3159 19.802C95.7399 20.054 95.1159 20.18 94.4439 20.18Z" fill="black"/>
</svg>
